<svg width="125" height="40" xmlns="http://www.w3.org/2000/svg" fill="none">
 <defs>
  <filter id="svg_7_blur">
   <feGaussianBlur in="SourceGraphic" stdDeviation="0"/>
  </filter>
 </defs>
 <g>
  <title>Layer 1</title>
  <path clip-rule="evenodd" d="m20.4839,1.18284l12.4901,7.13725l0.0044,0.00251c0.6698,0.37895 1.2313,0.88987 1.665,1.48771c0.125,0.11591 0.235,0.25219 0.3248,0.40742c0.0841,0.14542 0.145,0.29789 0.1837,0.45319c0.2877,0.6109 0.461,1.2776 0.505,1.9655c0.0189,0.1033 0.0286,0.2089 0.0286,0.3154l0,14.2888c0,0.2314 -0.0454,0.4544 -0.1287,0.6592c-0.2214,1.5045 -1.0722,2.8489 -2.3435,3.6883c-0.0772,0.064 -0.1604,0.1219 -0.2492,0.1726l-12.5027,7.1444l-0.008,0.0045c-0.4804,0.2712 -0.9949,0.4634 -1.5235,0.576c-0.2957,0.2286 -0.6667,0.3646 -1.0694,0.3646c-0.3836,0 -0.7383,-0.1234 -1.0267,-0.3326c-0.5128,-0.0933 -1.0142,-0.2618 -1.4859,-0.5061c-0.0601,-0.0259 -0.1193,-0.0554 -0.1773,-0.0885l-12.49479,-7.1399l-0.00448,-0.0025c-1.66144,-0.9401 -2.67133,-2.7039 -2.67133,-4.5936l0,-14.2888c0,-1.9042 1.00746,-3.67205 2.67581,-4.61386c0.06562,-0.03704 0.13302,-0.06952 0.20176,-0.09745l12.29033,-7.02304l0.0015,-0.00089c1.6319,-0.93559 3.6705,-0.93192 5.3145,0.01986zm-16.9839,12.64548l0,13.3587c0,0.645 0.34573,1.2373 0.89639,1.5482l0.00797,0.0045l11.70614,6.6892l0,-14.3058l-12.6105,-7.2948zm16.1105,7.295l0,14.2369l11.4228,-6.5273c0.055,-0.042 0.1127,-0.0809 0.1731,-0.1166c0.556,-0.3281 0.9077,-0.9336 0.9077,-1.6007c0,-0.1711 0.0248,-0.3376 0.0714,-0.4955l0,-12.771l-12.575,7.2742zm10.7532,-10.2637l-11.6314,-6.64658c-0.5693,-0.33052 -1.2776,-0.32606 -1.8226,-0.01339l-11.60308,6.63037l12.55408,7.2621l12.503,-7.2325z" fill-rule="evenodd" id="svg_2" fill="#ffffff"/>
  <text x="39.31419" y="30.3407" id="svg_7" fill="#ffffff" stroke-width="0" font-size="28" font-family="'Markazi Text'" text-anchor="start" xml:space="preserve" font-weight="bold" filter="url(#svg_7_blur)" stroke="#7f0000" transform="matrix(0.921269 0 0 0.969287 12.1087 -1.61173)">弈算云</text>
 </g>
</svg>